<?xml version="1.0" encoding="UTF-8" standalone="no"?>
<!-- Creator: Corel DESIGNER -->

<svg
   xml:space="preserve"
   width="30"
   height="30"
   style="clip-rule:evenodd;fill-rule:evenodd;image-rendering:optimizeQuality;shape-rendering:geometricPrecision;text-rendering:geometricPrecision"
   viewBox="0 0 30 30"
   version="1.1"
   id="svg1"
   xmlns="http://www.w3.org/2000/svg"
   xmlns:svg="http://www.w3.org/2000/svg"><defs
   id="defs1" />
 <g
   id="Layer_x0020_1">
  <metadata
   id="CorelCorpID_0Corel-Layer" />
  <path
   class="fill:#1F1A17;fill-rule:nonzero"
   d="m 14.454415,6.71963 3.431797,-0.026752 c -1.127132,5.585195 -1.279,9.225535 -1.279,13.214959 0,0.69815 0,6.092163 1.711575,6.092163 0.876656,0 1.628077,-0.955803 1.628077,-1.803553 0,-0.249339 0,-0.349083 -0.292215,-1.097088 -1.127132,-3.440882 -1.127132,-7.729514 -1.127132,-8.078562 0,-0.299211 0,-3.839838 0.876654,-8.3279377 h 4.675522 c 0.542705,0 1.920306,0 1.920306,-1.59577 C 26,4 25.206829,4 24.455407,4 H 12.11996 c 0,0 -3.7564854,-0.2222143 -5.3254136,2.3064455 C 5.6767725,7.9290404 5.6871519,7.9619909 5.3194006,8.535048 4.9254984,9.1593521 4.743013,9.5261518 4.9880965,9.9403503 5.1753194,10.256762 5.6897749,10.304243 6.050899,10.235261 6.3448528,10.179111 6.6730018,9.8497768 6.7666237,9.6932339 8.6451331,6.5522241 10.373964,6.6953091 11.049075,6.6946114 l 1.717544,-0.00178 C 11.848204,10.432913 10.804568,14.771397 7.3814136,23.498259 7.0474514,24.296136 7.0474514,24.39588 7.0474514,24.69509 c 0,1.05553 0.7514211,1.304871 1.1271326,1.304871 1.210632,0 1.544594,-1.304871 2.045539,-3.399323 1.462525,-5.926891 2.04276,-7.686059 4.234302,-15.8810355 z"
   id="path1"
   style="stroke-width:3.49679" />
 </g>
</svg>
